<svg width="272" height="89" viewBox="0 0 272 89" fill="none" xmlns="http://www.w3.org/2000/svg">
<path d="M221.658 10.5H143V76.5H221.658V10.5Z" fill="#0077FF"/>
<path d="M221.658 20.4448H143V77.4948H221.658V20.4448Z" fill="#C0E0FF"/>
<path d="M221.661 58.5132L143 58.5132" stroke="white" stroke-width="1.80822" stroke-miterlimit="10"/>
<path d="M143 39.4312L221.658 39.4312" stroke="white" stroke-width="1.80822" stroke-miterlimit="10"/>
<path d="M182.831 20.499L182.831 77.499" stroke="white" stroke-width="1.80822" stroke-miterlimit="10"/>
<path d="M162.831 77.4995L162.831 20.4995" stroke="white" stroke-width="1.80822" stroke-miterlimit="10"/>
<path d="M202.831 77.4976L202.831 20.4976" stroke="white" stroke-width="1.80822" stroke-miterlimit="10"/>
<path d="M187.831 25.2368L197.324 34.0971" stroke="#0077FF" stroke-width="1.80822" stroke-miterlimit="10" stroke-linecap="square"/>
<path d="M187.831 34.0971L197.324 25.2368" stroke="#0077FF" stroke-width="1.80822" stroke-miterlimit="10" stroke-linecap="square"/>
<path d="M187.831 43.9521L197.324 52.9029" stroke="#0077FF" stroke-width="1.80822" stroke-miterlimit="10" stroke-linecap="square"/>
<path d="M187.831 52.9029L197.324 43.9521" stroke="#0077FF" stroke-width="1.80822" stroke-miterlimit="10" stroke-linecap="square"/>
<path d="M167.772 43.9521L177.356 52.9029" stroke="#0077FF" stroke-width="1.80822" stroke-miterlimit="10" stroke-linecap="square"/>
<path d="M167.772 52.9029L177.356 43.9521" stroke="#0077FF" stroke-width="1.80822" stroke-miterlimit="10" stroke-linecap="square"/>
<path d="M147.831 25.2368L157.414 34.0971" stroke="#0077FF" stroke-width="1.80822" stroke-miterlimit="10" stroke-linecap="square"/>
<path d="M147.831 34.0971L157.414 25.2368" stroke="#0077FF" stroke-width="1.80822" stroke-miterlimit="10" stroke-linecap="square"/>
<path d="M167.772 63.2095L177.356 72.1601" stroke="#0077FF" stroke-width="1.80822" stroke-miterlimit="10" stroke-linecap="square"/>
<path d="M167.772 72.1601L177.356 63.2095" stroke="#0077FF" stroke-width="1.80822" stroke-miterlimit="10" stroke-linecap="square"/>
<path d="M207.831 63.2095L217.324 72.1601" stroke="#0077FF" stroke-width="1.80822" stroke-miterlimit="10" stroke-linecap="square"/>
<path d="M207.831 72.1601L217.324 63.2095" stroke="#0077FF" stroke-width="1.80822" stroke-miterlimit="10" stroke-linecap="square"/>
</svg>
