<svg width="272" height="89" viewBox="0 0 272 89" fill="none" xmlns="http://www.w3.org/2000/svg">
<path d="M202.54 83.493H165.768C164.554 83.493 163.6 82.539 163.6 81.3248V9.16817C163.6 7.95399 164.554 7 165.768 7H202.54C203.755 7 204.709 7.95399 204.709 9.16817V81.3248C204.709 82.539 203.668 83.493 202.54 83.493Z" fill="#C0E0FF"/>
<path fill-rule="evenodd" clip-rule="evenodd" d="M178.133 11.8565C178.133 11.3775 178.521 10.9893 179 10.9893H189.11C189.589 10.9893 189.977 11.3775 189.977 11.8565C189.977 12.3355 189.589 12.7238 189.11 12.7238H179C178.521 12.7238 178.133 12.3355 178.133 11.8565Z" fill="#58A6FF"/>
<path d="M184.068 78.9372C185.409 78.9372 186.496 77.85 186.496 76.5089C186.496 75.1678 185.409 74.0806 184.068 74.0806C182.726 74.0806 181.639 75.1678 181.639 76.5089C181.639 77.85 182.726 78.9372 184.068 78.9372Z" fill="#58A6FF"/>
<path fill-rule="evenodd" clip-rule="evenodd" d="M195.155 36.7442L181.725 58.3716L174.428 48.4116L176.445 46.9342L181.554 53.9079L193.031 35.4253L195.155 36.7442Z" fill="#0077FF"/>
<path d="M166.663 63.3512C166.663 63.3512 162.507 64.9098 160.949 66.4683C159.39 68.0268 157.832 72.7025 157.832 72.7025C157.832 72.7025 156.273 68.0268 154.715 66.4683C153.156 64.9098 149 63.3512 149 63.3512C149 63.3512 153.156 61.7927 154.715 60.2342C156.273 58.6756 157.832 54 157.832 54C157.832 54 159.39 58.6756 160.949 60.2342C162.507 61.7927 166.663 63.3512 166.663 63.3512Z" fill="#008AFF"/>
<path d="M221.344 26.394C221.344 26.394 215.803 28.5586 213.638 30.8099C211.473 32.9745 209.222 39.6416 209.222 39.6416C209.222 39.6416 207.057 33.0611 204.806 30.8099C202.642 28.6452 197.1 26.394 197.1 26.394C197.1 26.394 202.642 24.2294 204.806 21.9782C206.971 19.8136 209.222 13.1465 209.222 13.1465C209.222 13.1465 211.387 19.727 213.638 21.9782C215.803 24.2294 221.344 26.394 221.344 26.394Z" fill="#008AFF"/>
<path d="M156.055 20.7895C156.055 20.7895 153.28 21.9169 152.152 22.9576C151.025 23.9983 149.984 27.3807 149.984 27.3807C149.984 27.3807 148.857 24.0851 147.816 22.9576C146.775 21.8302 144 20.7895 144 20.7895C144 20.7895 146.775 19.662 147.816 18.6213C148.857 17.5806 149.984 14.1982 149.984 14.1982C149.984 14.1982 151.112 17.4938 152.152 18.6213C153.193 19.7487 156.055 20.7895 156.055 20.7895Z" fill="#97CCFE"/>
</svg>
