<svg width="272" height="89" viewBox="0 0 272 89" fill="none" xmlns="http://www.w3.org/2000/svg">
<path d="M217.228 38.9812L210.132 48.0115L201.774 41.4431" stroke="#58A6FF" stroke-width="5" stroke-miterlimit="10" stroke-linecap="square" stroke-linejoin="round"/>
<path d="M210.132 48.0115C210.159 47.6703 210.175 47.8037 210.143 47.5371C210.41 39.0554 206.764 30.6374 199.599 25.0074C187.658 15.6241 170.332 17.7022 160.949 29.6432C159.744 31.1768 158.723 32.7763 157.886 34.4418" stroke="#58A6FF" stroke-width="5" stroke-miterlimit="10" stroke-linejoin="round"/>
<path d="M155.611 41.5049C153.74 51.2606 157.284 61.6511 165.643 68.2195C177.584 77.6028 194.91 75.5247 204.293 63.5837C206.144 61.2291 207.55 58.6756 208.524 56.0299" stroke="#97CCFE" stroke-width="5" stroke-miterlimit="10" stroke-linejoin="round"/>
<path d="M148.441 50.4761L155.537 41.4456L163.896 48.0139" stroke="#97CCFE" stroke-width="5" stroke-miterlimit="10" stroke-linecap="square" stroke-linejoin="round"/>
</svg>
